<svg width="513" height="513" viewBox="0 0 513 513" fill="none" xmlns="http://www.w3.org/2000/svg">
<path d="M74 191.756H99.8995V205.733C108.055 196.621 120.497 189.323 136.612 189.323C148.441 189.323 159.046 193.374 162.719 205.527C170.667 195.6 183.316 189.323 197.999 189.323C220.028 189.323 226.139 201.281 226.139 217.886V294.063H199.628V224.772C199.628 216.876 197.791 211.196 189.635 211.196C176.581 211.196 163.331 224.163 163.331 246.645V294.051H136.82V224.978C136.82 217.691 134.371 211.207 127.231 211.207C113.981 211.207 100.512 224.978 100.512 246.656V294.063H74V191.756Z" fill="#F6ABCC" stroke="#231F20" stroke-width="1.8156" stroke-miterlimit="10" stroke-linejoin="round"/>
<path d="M258.381 296.496C236.963 296.496 227.387 286.363 227.387 268.747C227.387 241.802 255.943 231.669 301.412 231.267V225.391C301.412 215.258 293.256 209.991 279.59 209.991C264.908 209.991 256.544 213.835 255.527 222.959H230.644C231.661 203.92 243.086 189.323 279.59 189.323C316.094 189.323 327.923 205.527 327.923 227.205V276.436C327.923 283.723 329.148 289.599 331.181 294.063H305.074C303.641 291.228 302.417 284.745 302.417 279.684C293.244 289.404 278.354 296.496 258.369 296.496H258.381ZM301.412 245.646C282.848 246.048 254.707 251.12 254.707 267.726C254.707 272.993 258.173 275.828 264.492 275.828C285.909 275.828 301.4 261.449 301.4 251.109V245.635L301.412 245.646Z" fill="#F6ABCC" stroke="#231F20" stroke-width="1.8156" stroke-miterlimit="10" stroke-linejoin="round"/>
<path d="M304.575 296.496L352.181 303.381C358.915 303.381 362.173 300.133 362.785 294.063L320.159 191.755H349.524L378.889 267.932H379.709L409.074 191.755H438.439L395.2 295.486C386.837 315.546 379.697 325.472 358.084 325.472L304.563 318.587V296.507L304.575 296.496Z" fill="#F6ABCC" stroke="#231F20" stroke-width="1.8156" stroke-miterlimit="10" stroke-linejoin="round"/>
</svg>
