<svg width="101" height="38" viewBox="0 0 101 38" fill="none" xmlns="http://www.w3.org/2000/svg">
<g clip-path="url(#clip0_23_48)">
<path d="M0.254883 0.922923H7.38736V4.77222C9.63336 2.26291 13.0596 0.25293 17.4975 0.25293C20.7552 0.25293 23.6756 1.36853 24.6873 4.71534C26.876 1.98164 30.3595 0.25293 34.403 0.25293C40.4697 0.25293 42.1526 3.54601 42.1526 8.11903V29.0974H34.8515V10.0152C34.8515 7.84092 34.3457 6.27655 32.0997 6.27655C28.5048 6.27655 24.8559 9.84774 24.8559 16.0389V29.0942H17.5548V10.0721C17.5548 8.06531 16.8804 6.27971 14.9143 6.27971C11.2654 6.27971 7.55597 10.0721 7.55597 16.042V29.0974H0.254883V0.922923Z" fill="#F6ABCC" stroke="#231F20" stroke-width="0.5" stroke-miterlimit="10" stroke-linejoin="round"/>
<path d="M51.0315 29.7674C45.1334 29.7674 42.4961 26.9768 42.4961 22.1257C42.4961 14.7052 50.3603 11.9146 62.8819 11.804V10.1859C62.8819 7.39531 60.6359 5.94471 56.8724 5.94471C52.829 5.94471 50.5257 7.00343 50.2457 9.5159H43.3932C43.6732 4.27289 46.8195 0.25293 56.8724 0.25293C66.9253 0.25293 70.183 4.71534 70.183 10.6852V24.2431C70.183 26.2499 70.5202 27.868 71.0801 29.0974H63.8904C63.4959 28.3168 63.1587 26.5312 63.1587 25.1375C60.6327 27.8143 56.532 29.7674 51.0283 29.7674H51.0315ZM62.8819 15.7639C57.7695 15.8745 50.0199 17.2714 50.0199 21.8444C50.0199 23.295 50.9743 24.0756 52.7144 24.0756C58.6126 24.0756 62.8787 20.1157 62.8787 17.2682V15.7607L62.8819 15.7639Z" fill="#F6ABCC" stroke="#231F20" stroke-width="0.5" stroke-miterlimit="10" stroke-linejoin="round"/>
<path d="M63.7532 29.7673L76.8633 31.6635C78.718 31.6635 79.6152 30.7692 79.7838 29.0973L68.0448 0.922852H76.1316L84.2185 21.9012H84.4444L92.5312 0.922852H100.618L88.7105 29.4892C86.4072 35.0135 84.4412 37.7472 78.489 37.7472L63.75 35.851V29.7705L63.7532 29.7673Z" fill="#F6ABCC" stroke="#231F20" stroke-width="0.5" stroke-miterlimit="10" stroke-linejoin="round"/>
</g>
<defs>
<clipPath id="clip0_23_48">
<rect width="101" height="38" fill="white"/>
</clipPath>
</defs>
</svg>
